<?xml version="1.0" encoding="UTF-8" standalone="no"?>
<!-- Created with Inkscape (http://www.inkscape.org/) -->

<svg
   width="118.20201mm"
   height="22.1mm"
   viewBox="0 0 118.20201 22.1"
   version="1.1"
   id="svg5"
   sodipodi:docname="logo_light_2.svg"
   inkscape:export-filename="logo_light_2.svg"
   inkscape:export-xdpi="96"
   inkscape:export-ydpi="96"
   xmlns:inkscape="http://www.inkscape.org/namespaces/inkscape"
   xmlns:sodipodi="http://sodipodi.sourceforge.net/DTD/sodipodi-0.dtd"
   xmlns="http://www.w3.org/2000/svg"
   xmlns:svg="http://www.w3.org/2000/svg">
  <sodipodi:namedview
     id="namedview22"
     pagecolor="#ffffff"
     bordercolor="#666666"
     borderopacity="1.0"
     inkscape:showpageshadow="2"
     inkscape:pageopacity="0.0"
     inkscape:pagecheckerboard="0"
     inkscape:deskcolor="#d1d1d1"
     inkscape:document-units="mm"
     showgrid="false"
     inkscape:zoom="1.8242325"
     inkscape:cx="359.05512"
     inkscape:cy="57.284366"
     inkscape:window-width="2560"
     inkscape:window-height="1011"
     inkscape:window-x="0"
     inkscape:window-y="32"
     inkscape:window-maximized="1"
     inkscape:current-layer="svg5" />
  <defs
     id="defs2">
    <filter
       style="color-interpolation-filters:sRGB"
       inkscape:label="Brilliance"
       id="filter789"
       x="0"
       y="0"
       width="1"
       height="1">
      <feColorMatrix
         values="10 -0.5 -0.5 0 10 -0.5 10 -0.5 0 10 -0.5 -0.5 10 0 10 0 0 0 1 0 "
         id="feColorMatrix787"
         result="fbSourceGraphic" />
      <feColorMatrix
         result="fbSourceGraphicAlpha"
         in="fbSourceGraphic"
         values="0 0 0 -1 0 0 0 0 -1 0 0 0 0 -1 0 0 0 0 1 0"
         id="feColorMatrix791" />
      <feColorMatrix
         id="feColorMatrix793"
         values="10 -0.5 -0.5 0 10 -0.5 10 -0.5 0 10 -0.5 -0.5 10 0 10 0 0 0 1 0 "
         in="fbSourceGraphic"
         result="fbSourceGraphic" />
      <feColorMatrix
         result="fbSourceGraphicAlpha"
         in="fbSourceGraphic"
         values="0 0 0 -1 0 0 0 0 -1 0 0 0 0 -1 0 0 0 0 1 0"
         id="feColorMatrix795" />
      <feColorMatrix
         id="feColorMatrix797"
         values="10 -0.5 -0.5 0 10 -0.5 10 -0.5 0 10 -0.5 -0.5 10 0 10 0 0 0 1 0 "
         in="fbSourceGraphic"
         result="fbSourceGraphic" />
      <feColorMatrix
         result="fbSourceGraphicAlpha"
         in="fbSourceGraphic"
         values="0 0 0 -1 0 0 0 0 -1 0 0 0 0 -1 0 0 0 0 1 0"
         id="feColorMatrix799" />
      <feColorMatrix
         id="feColorMatrix801"
         values="10 -0.5 -0.5 0 10 -0.5 10 -0.5 0 10 -0.5 -0.5 10 0 10 0 0 0 1 0 "
         in="fbSourceGraphic"
         result="fbSourceGraphic" />
      <feColorMatrix
         result="fbSourceGraphicAlpha"
         in="fbSourceGraphic"
         values="0 0 0 -1 0 0 0 0 -1 0 0 0 0 -1 0 0 0 0 1 0"
         id="feColorMatrix803" />
      <feColorMatrix
         id="feColorMatrix805"
         values="10 -0.5 -0.5 0 10 -0.5 10 -0.5 0 10 -0.5 -0.5 10 0 10 0 0 0 1 0 "
         in="fbSourceGraphic" />
    </filter>
  </defs>
  <g
     id="layer1"
     transform="matrix(0.55039076,0,0,0.55039076,6.1245791,3.2787713)"
     style="stroke-width:1.81689;filter:url(#filter789)">
    <g
       id="g1042"
       transform="matrix(0.12033934,0,0,0.12033934,2.4687245,2.2814525)"
       style="stroke-width:15.0981">
      <g
         id="layer3"
         style="display:inline;stroke-width:15.0981" />
      <g
         id="layer1-7"
         style="display:inline;stroke-width:15.0981">
        <path
           style="fill:#000000;stroke-width:15.0981"
           id="path30336"
           d="" />
        <path
           style="fill:#000000;stroke-width:15.0981"
           id="path30098"
           d="" />
        <path
           style="fill:#000000;stroke-width:15.0981"
           id="path29997"
           d="" />
        <path
           d="M 0,0"
           id="path29560"
           style="stroke-width:15.0981" />
        <path
           id="rect33849"
           style="opacity:1;fill:#db504a;fill-opacity:1;stroke:none;stroke-width:0;stroke-miterlimit:4;stroke-dasharray:none;stroke-opacity:1;paint-order:stroke fill markers"
           d="m 92.855637,-2.32e-4 c 6.242757,32.851212 28.475373,52.209009 67.105713,52.533189 3.03992,38.19773 18.52842,60.249443 50.12249,66.830043 V 69.650777 C 199.23745,57.644397 193.22656,40.911277 192.7865,19.707791 169.84513,19.517974 152.18465,12.578097 140.05459,-2.32e-4 Z M 0.0026164,172.46675 v 37.6144 H 38.828614 c -3.614473,-9.02725 -5.613265,-19.5032 -5.85978,-31.38266 -12.593463,-0.0993 -23.5950633,-2.24458 -32.9662176,-6.23174 z M 0.14367065,53.616403 V 138.2311 C 11.599841,151.23635 29.01467,158.4602 52.484424,158.65709 c 1.900284,23.87731 8.662371,41.44326 21.182516,52.86654 h 83.85818 V 198.04734 C 112.72694,196.11876 86.251615,171.22699 85.309598,125.83192 39.780679,125.45477 15.026612,98.51159 13.094194,53.616403 Z M 0,1.6263361e-5 V 32.825175 h 36.107636 c 0.369711,44.680702 23.121512,71.831045 68.932944,72.215515 3.6791,46.22903 25.58269,68.80429 72.2155,68.93295 v 36.10763 h 32.82516 V 144.43093 C 165.28307,142.50237 138.80788,117.61047 137.86586,72.215424 92.336929,71.838276 67.582752,44.895083 65.650336,1.6263361e-5 H 1.0701007e-5" />
      </g>
      <g
         id="layer2"
         style="stroke-width:15.0981" />
    </g>
    <g
       aria-label="Cascade"
       id="text3048"
       style="font-size:35.3652px;line-height:1.25;font-family:Montserrat;-inkscape-font-specification:'Montserrat, @wght=700';font-variation-settings:'wght' 700;fill:#084c61;stroke-width:0.480718">
      <path
         d="m 47.001598,27.756801 q -2.864581,0 -5.340145,-0.919495 -2.440199,-0.954861 -4.243824,-2.687756 -1.803625,-1.732894 -2.829216,-4.066998 -0.990226,-2.334103 -0.990226,-5.127954 0,-2.79385 0.990226,-5.1279536 1.025591,-2.3341032 2.829216,-4.066998 1.83899,-1.7328948 4.279189,-2.65239 2.440199,-0.9548604 5.340145,-0.9548604 3.218234,0 5.799893,1.1316864 2.617025,1.0963212 4.385285,3.2535984 L 53.54416,9.93274 Q 52.271013,8.4827668 50.714944,7.7754628 49.158875,7.0327936 47.319885,7.0327936 q -1.732895,0 -3.182868,0.5658432 -1.449973,0.5658432 -2.510929,1.6267992 -1.060956,1.060956 -1.662165,2.510929 -0.565843,1.449973 -0.565843,3.218233 0,1.76826 0.565843,3.218234 0.601209,1.449973 1.662165,2.510929 1.060956,1.060956 2.510929,1.626799 1.449973,0.565843 3.182868,0.565843 1.83899,0 3.395059,-0.707304 1.556069,-0.742669 2.829216,-2.228007 l 3.677981,3.395059 q -1.76826,2.157277 -4.385285,3.288963 -2.581659,1.131687 -5.835258,1.131687 z"
         id="path4125"
         style="stroke-width:0.480718" />
      <path
         d="M 72.230412,27.332418 V 23.619072 L 71.87676,22.805673 v -6.648658 q 0,-1.76826 -1.096321,-2.758485 -1.060956,-0.990226 -3.288964,-0.990226 -1.520704,0 -3.006042,0.495113 -1.449973,0.459747 -2.475564,1.273147 l -1.980451,-3.854807 q 1.556069,-1.096321 3.748711,-1.6975294 2.192642,-0.6012084 4.456015,-0.6012084 4.34992,0 6.754753,2.0511818 2.404834,2.051181 2.404834,6.401101 v 10.857116 z m -5.799893,0.282922 q -2.228008,0 -3.819442,-0.742669 -1.591434,-0.778035 -2.440198,-2.086547 -0.848765,-1.308512 -0.848765,-2.935312 0,-1.697529 0.813399,-2.970676 0.848765,-1.273148 2.65239,-1.980452 1.803626,-0.742669 4.703572,-0.742669 h 5.057224 v 3.218233 h -4.456016 q -1.945086,0 -2.687755,0.636574 -0.707304,0.636574 -0.707304,1.591434 0,1.060956 0.8134,1.69753 0.848765,0.601208 2.298738,0.601208 1.379243,0 2.475564,-0.636574 1.096321,-0.671938 1.591434,-1.945086 l 0.848765,2.546295 q -0.601209,1.83899 -2.192643,2.793851 -1.591434,0.95486 -4.102363,0.95486 z"
         id="path4127"
         style="stroke-width:0.480718" />
      <path
         d="m 88.781277,27.61534 q -2.440199,0 -4.703572,-0.565843 -2.228007,-0.601209 -3.53652,-1.485339 l 1.838991,-3.960902 q 1.308512,0.8134 3.076772,1.343878 1.803625,0.495112 3.53652,0.495112 1.909721,0 2.687755,-0.459747 0.8134,-0.459748 0.8134,-1.273147 0,-0.671939 -0.636574,-0.990226 -0.601208,-0.353652 -1.626799,-0.530478 -1.025591,-0.176826 -2.263373,-0.353652 -1.202416,-0.176826 -2.440198,-0.459748 -1.237782,-0.318286 -2.263373,-0.919495 -1.025591,-0.601208 -1.662165,-1.626799 -0.601208,-1.025591 -0.601208,-2.65239 0,-1.803625 1.025591,-3.182868 1.060956,-1.3792428 3.041407,-2.1572772 1.980451,-0.8133996 4.738937,-0.8133996 1.945086,0 3.960902,0.4243824 2.015817,0.4243824 3.359694,1.237782 l -1.83899,3.9255374 q -1.379243,-0.8134 -2.793851,-1.096321 -1.379243,-0.318287 -2.687755,-0.318287 -1.838991,0 -2.687755,0.495113 -0.848765,0.495112 -0.848765,1.273147 0,0.707304 0.601208,1.060956 0.636574,0.353652 1.662165,0.565843 1.02559,0.212191 2.228007,0.389017 1.237782,0.141461 2.475564,0.459748 1.237782,0.318287 2.228008,0.919495 1.025591,0.565843 1.662164,1.591434 0.636574,0.990226 0.636574,2.617025 0,1.76826 -1.060956,3.147503 -1.060956,1.343877 -3.076773,2.121912 -1.980451,0.778034 -4.845032,0.778034 z"
         id="path4129"
         style="stroke-width:0.480718" />
      <path
         d="m 110.35399,27.61534 q -3.07677,0 -5.48161,-1.237782 -2.40483,-1.273147 -3.78407,-3.501155 -1.34388,-2.228007 -1.34388,-5.057223 0,-2.864582 1.34388,-5.057224 1.37924,-2.228008 3.78407,-3.4657896 2.40484,-1.2731472 5.48161,-1.2731472 3.00604,0 5.23405,1.2731472 2.22801,1.2377816 3.28896,3.5718856 l -4.27919,2.298738 q -0.74267,-1.343878 -1.87435,-1.980452 -1.09632,-0.636573 -2.40484,-0.636573 -1.4146,0 -2.54629,0.636573 -1.13169,0.636574 -1.80363,1.803626 -0.63657,1.167051 -0.63657,2.829216 0,1.662164 0.63657,2.829216 0.67194,1.167051 1.80363,1.803625 1.13169,0.636573 2.54629,0.636573 1.30852,0 2.40484,-0.601208 1.13168,-0.636574 1.87435,-2.015816 l 4.27919,2.334103 q -1.06095,2.298738 -3.28896,3.571885 -2.22801,1.237782 -5.23405,1.237782 z"
         id="path4131"
         style="stroke-width:0.480718" />
      <path
         d="m 133.73037,27.332418 v -3.713346 l -0.35365,-0.813399 v -6.648658 q 0,-1.76826 -1.09632,-2.758485 -1.06096,-0.990226 -3.28897,-0.990226 -1.5207,0 -3.00604,0.495113 -1.44997,0.459747 -2.47556,1.273147 l -1.98045,-3.854807 q 1.55607,-1.096321 3.74871,-1.6975294 2.19264,-0.6012084 4.45601,-0.6012084 4.34992,0 6.75476,2.0511818 2.40483,2.051181 2.40483,6.401101 v 10.857116 z m -5.79989,0.282922 q -2.22801,0 -3.81944,-0.742669 -1.59144,-0.778035 -2.4402,-2.086547 -0.84877,-1.308512 -0.84877,-2.935312 0,-1.697529 0.8134,-2.970676 0.84877,-1.273148 2.65239,-1.980452 1.80363,-0.742669 4.70357,-0.742669 h 5.05723 v 3.218233 h -4.45602 q -1.94508,0 -2.68775,0.636574 -0.70731,0.636574 -0.70731,1.591434 0,1.060956 0.8134,1.69753 0.84877,0.601208 2.29874,0.601208 1.37924,0 2.47557,-0.636574 1.09632,-0.671938 1.59143,-1.945086 l 0.84876,2.546295 q -0.6012,1.83899 -2.19264,2.793851 -1.59143,0.95486 -4.10236,0.95486 z"
         id="path4133"
         style="stroke-width:0.480718" />
      <path
         d="m 152.18973,27.61534 q -2.68775,0 -4.84503,-1.202417 -2.15727,-1.237782 -3.43042,-3.430424 -1.23778,-2.192643 -1.23778,-5.163319 0,-3.006042 1.23778,-5.198685 1.27315,-2.192642 3.43042,-3.395059 2.15728,-1.2024168 4.84503,-1.2024168 2.40484,0 4.20846,1.060956 1.80363,1.0609558 2.79385,3.2182328 0.99023,2.157278 0.99023,5.516972 0,3.324328 -0.95486,5.516971 -0.95486,2.157277 -2.75849,3.218233 -1.76826,1.060956 -4.27919,1.060956 z m 0.95487,-4.526746 q 1.34387,0 2.44019,-0.636573 1.09633,-0.636574 1.7329,-1.803625 0.67194,-1.202417 0.67194,-2.829216 0,-1.662165 -0.67194,-2.829216 -0.63657,-1.167052 -1.7329,-1.803626 -1.09632,-0.636573 -2.44019,-0.636573 -1.37925,0 -2.47557,0.636573 -1.09632,0.636574 -1.76826,1.803626 -0.63657,1.167051 -0.63657,2.829216 0,1.626799 0.63657,2.829216 0.67194,1.167051 1.76826,1.803625 1.09632,0.636573 2.47557,0.636573 z m 4.98649,4.243824 v -3.890172 l 0.10609,-5.658432 -0.35365,-5.623066 V 1.09144 h 5.51697 v 26.240978 z"
         id="path4135"
         style="stroke-width:0.480718" />
      <path
         d="m 177.93558,27.61534 q -3.2536,0 -5.72917,-1.273147 -2.44019,-1.273147 -3.78407,-3.46579 -1.34388,-2.228007 -1.34388,-5.057223 0,-2.864582 1.30851,-5.057224 1.34388,-2.228008 3.64262,-3.4657896 2.29874,-1.2731472 5.19868,-1.2731472 2.79385,0 5.02186,1.2024168 2.26337,1.167052 3.57189,3.395059 1.30851,2.192643 1.30851,5.269415 0,0.318287 -0.0354,0.742669 -0.0354,0.389017 -0.0707,0.742669 h -15.45459 v -3.218233 h 12.55465 l -2.12192,0.954861 q 0,-1.485339 -0.6012,-2.58166 -0.60121,-1.096321 -1.66217,-1.69753 -1.06095,-0.636573 -2.47556,-0.636573 -1.41461,0 -2.51093,0.636573 -1.06096,0.601209 -1.66217,1.732895 -0.6012,1.096321 -0.6012,2.617025 v 0.848765 q 0,1.556069 0.67193,2.758485 0.70731,1.167052 1.94509,1.803626 1.27315,0.601208 2.97068,0.601208 1.5207,0 2.65239,-0.459748 1.16705,-0.459747 2.12191,-1.379242 l 2.93531,3.182868 q -1.30851,1.485338 -3.28896,2.298738 -1.98045,0.778034 -4.56211,0.778034 z"
         id="path4137"
         style="stroke-width:0.480718" />
    </g>
  </g>
</svg>
