<?xml version="1.0" encoding="UTF-8" standalone="no"?>
<!-- Created with Inkscape (http://www.inkscape.org/) -->

<svg
   width="210mm"
   height="210mm"
   viewBox="0 0 210 210"
   version="1.1"
   id="svg5"
   xmlns="http://www.w3.org/2000/svg"
   xmlns:svg="http://www.w3.org/2000/svg">
  <defs
     id="defs2" />
  <g
     id="layer3"
     style="display:inline" />
  <g
     id="layer1"
     style="display:inline">
    <path
       style="fill:#000000;stroke-width:1"
       id="path30336"
       d="" />
    <path
       style="fill:#000000;stroke-width:1"
       id="path30098"
       d="" />
    <path
       style="fill:#000000;stroke-width:1"
       id="path29997"
       d="" />
    <path
       d="M 0,0"
       id="path29560" />
    <path
       id="rect33849"
       style="opacity:1;fill:#db504a;fill-opacity:1;stroke:none;stroke-width:0;stroke-miterlimit:4;stroke-dasharray:none;stroke-opacity:1;paint-order:stroke fill markers"
       d="m 92.855637,-2.32e-4 c 6.242757,32.851212 28.475373,52.209009 67.105713,52.533189 3.03992,38.19773 18.52842,60.249443 50.12249,66.830043 V 69.650777 C 199.23745,57.644397 193.22656,40.911277 192.7865,19.707791 169.84513,19.517974 152.18465,12.578097 140.05459,-2.32e-4 Z M 0.0026164,172.46675 v 37.6144 H 38.828614 c -3.614473,-9.02725 -5.613265,-19.5032 -5.85978,-31.38266 -12.593463,-0.0993 -23.5950633,-2.24458 -32.9662176,-6.23174 z M 0.14367065,53.616403 V 138.2311 C 11.599841,151.23635 29.01467,158.4602 52.484424,158.65709 c 1.900284,23.87731 8.662371,41.44326 21.182516,52.86654 h 83.85818 V 198.04734 C 112.72694,196.11876 86.251615,171.22699 85.309598,125.83192 39.780679,125.45477 15.026612,98.51159 13.094194,53.616403 Z M 0,1.6263361e-5 V 32.825175 h 36.107636 c 0.369711,44.680702 23.121512,71.831045 68.932944,72.215515 3.6791,46.22903 25.58269,68.80429 72.2155,68.93295 v 36.10763 h 32.82516 V 144.43093 C 165.28307,142.50237 138.80788,117.61047 137.86586,72.215424 92.336929,71.838276 67.582752,44.895083 65.650336,1.6263361e-5 H 1.0701007e-5" />
  </g>
  <g
     id="layer2" />
</svg>
